#!OML:ASF I:\golf\golf\golf 2\Subject 1\2002-09-07\Subject1.ASF
:FULLY-SPECIFIED
:DEGREES
481
root 1.61837 17.8625 -5.50516 5.30997 -5.51461 -5.61995
lowerback -1.6963 0.738887 -4.52559
upperback 0.576378 1.03032 4.28079
thorax 1.39002 0.456399 7.03823
lowerneck -24.661 -4.5479 -3.04385
upperneck 17.9004 -5.88896 3.0488
head 9.916 -2.56065 0.657828
rclavicle 1.64246e-014 -1.78906e-015
rhumerus -38.8989 -22.2902 -67.4938
rradius 20.8477
rwrist -0.470855
rhand -17.8056 10.5111
rfingers 7.12502
rthumb 8.45795 -19.2996
lclavicle 1.64246e-014 -1.78906e-015
lhumerus -33.7793 16.7016 77.4225
lradius 19.7048
lwrist -5.14506
lhand -8.85716 30.7326
lfingers 7.12502
lthumb 17.0839 60.0014
rfemur -21.7326 -1.61779 20.8521
rtibia 43.9259
rfoot -12.465 -8.59677
rtoes 1.69227
lfemur -13.347 2.40856 -15.293
ltibia 32.2899
lfoot -19.1274 7.36697
ltoes -8.65147
482
root 1.59006 17.8598 -5.4999 5.49453 -5.53759 -5.633
lowerback -2.01905 0.769935 -4.57711
upperback 0.497854 1.08333 4.28224
thorax 1.48113 0.481733 7.07645
lowerneck -24.525 -4.58539 -3.05571
upperneck 17.9956 -5.95936 3.10893
head 9.9314 -2.58737 0.671345
rclavicle 1.47349e-014 -1.19271e-015
rhumerus -38.995 -22.4416 -67.3764
rradius 20.8785
rwrist -0.429424
rhand -17.94 10.5272
rfingers 7.12502
rthumb 8.32822 -19.2887
lclavicle 1.47349e-014 -1.19271e-015
lhumerus -33.7957 16.6994 77.4463
lradius 19.8677
lwrist -4.84636
lhand -8.99087 31.0882
lfingers 7.12502
lthumb 16.9552 60.3681
rfemur -21.4572 -1.58843 20.8427
rtibia 43.3237
rfoot -12.0005 -7.92463
rtoes 1.66237
lfemur -13.5059 2.39624 -15.1941
ltibia 32.2021
lfoot -18.9476 7.58608
ltoes -9.70074
483
root 1.56061 17.8644 -5.49354 5.71778 -5.52755 -5.70137
lowerback -2.26506 0.776653 -4.52355
upperback 0.316664 1.09978 4.28498
thorax 1.43011 0.497186 7.05129
lowerneck -24.2847 -4.58698 -3.04805
upperneck 18.0985 -5.97686 3.11054
head 9.92684 -2.59701 0.671278
rclavicle -1.42628e-014 -1.55052e-014
rhumerus -39.1978 -22.3983 -67.3149
rradius 20.9324
rwrist -0.500687
rhand -18.1577 10.3857
rfingers 7.12502
rthumb 8.11812 -19.4383
lclavicle -1.42628e-014 -1.55052e-014
lhumerus -33.9282 16.6709 77.3956
lradius 19.9528
lwrist -4.45749
lhand -9.02907 31.3093
lfingers 7.12502
lthumb 16.9185 60.5924
rfemur -21.1922 -1.55967 20.9192
rtibia 42.6356
rfoot -12.0316 -7.25432
rtoes 2.26285
lfemur -13.6764 2.22548 -15.0168
ltibia 32.1051
lfoot -18.8089 7.74144
ltoes -9.81083
484
root 1.52946 17.8677 -5.48347 5.89514 -5.58517 -5.70523
lowerback -2.55973 0.780582 -4.55017
upperback 0.219611 1.11519 4.28737
thorax 1.49236 0.505286 7.07472
lowerneck -24.0967 -4.59046 -3.02387
upperneck 18.0829 -5.98065 3.04883
head 9.88551 -2.60751 0.648478
rclavicle 6.24929e-015 -8.15017e-015
rhumerus -39.2071 -22.4201 -67.2967
rradius 20.9163
rwrist -0.469836
rhand -18.3924 10.2692
rfingers 7.12502
rthumb 7.89162 -19.5635
lclavicle 6.24929e-015 -8.15017e-015
lhumerus -33.9582 16.6671 77.4156
lradius 20.0489
lwrist -4.0993
lhand -9.16906 31.3483
lfingers 7.12502
lthumb 16.7837 60.6429
rfemur -20.8463 -1.54194 20.9399
rtibia 41.8536
rfoot -12.4847 -6.60126
rtoes 2.2288
lfemur -13.7719 2.16537 -14.9072
ltibia 32.0213
lfoot -18.7895 7.76838
ltoes -9.52329
485
root 1.50067 17.867 -5.47216 5.9964 -5.68923 -5.63655
lowerback -2.86258 0.821643 -4.62719
upperback 0.23213 1.18193 4.2585
thorax 1.66434 0.532113 7.09805
lowerneck -24.1666 -4.62751 -2.97853
upperneck 18.1316 -6.03717 3.00544
head 9.91381 -2.6341 0.615488
rclavicle 3.03147e-015 2.48481e-014
rhumerus -39.0879 -22.5792 -67.3285
rradius 20.9689
rwrist -0.452464
rhand -18.6921 10.279
rfingers 7.12502
rthumb 7.60238 -19.5643
lclavicle 3.03147e-015 2.48481e-014
lhumerus -33.7938 16.7103 77.4972
lradius 20.1246
lwrist -3.97004
lhand -9.32784 31.5577
lfingers 7.12502
lthumb 16.6308 60.8652
rfemur -20.4583 -1.59774 20.8732
rtibia 40.9974
rfoot -12.8068 -6.11219
rtoes 0.429989
lfemur -13.7907 2.14771 -14.9075
ltibia 31.9472
lfoot -18.7421 7.94729
ltoes -9.8729
